HIERARCHY
ROOT Hip
{
	OFFSET 0 0 0
	CHANNELS 6 Xposition Yposition Zposition Zrotation Yrotation Xrotation
	JOINT ShoulderCenter
	{
		OFFSET 0 0.4363 0
		CHANNELS 3 Zrotation Yrotation Xrotation
		JOINT Head
		{
			OFFSET 0 0.1849 0
			CHANNELS 3 Zrotation Yrotation Xrotation
			End Site
			{
				OFFSET 0.0 0.0891 0.0
			}
		}
		JOINT ShoulderLeft
		{
			OFFSET -0.14 0 0
			CHANNELS 3 Zrotation Yrotation Xrotation
			JOINT ElbowLeft
			{
				OFFSET -0.25 0 0
				CHANNELS 3 Zrotation Yrotation Xrotation
				JOINT WristLeft
				{
					OFFSET -0.23 0 0
					CHANNELS 3 Zrotation Yrotation Xrotation
					End Site
					{
						OFFSET -0.0832 0.0 0.0
					}
				}
			}
		}
		JOINT ShoulderRight
		{
			OFFSET 0.14 0 0
			CHANNELS 3 Zrotation Yrotation Xrotation
			JOINT ElbowRight
			{
				OFFSET 0.25 0 0
				CHANNELS 3 Zrotation Yrotation Xrotation
				JOINT WristRight
				{
					OFFSET 0.23 0 0
					CHANNELS 3 Zrotation Yrotation Xrotation
					End Site
					{
						OFFSET 0.0832 0.0 0.0
					}
				}
			}
		}
	}
	JOINT HipLeft
	{
		OFFSET -0.0952 0 0
		CHANNELS 3 Zrotation Yrotation Xrotation
		JOINT KneeLeft
		{
			OFFSET 0 -0.3732 0
			CHANNELS 3 Zrotation Yrotation Xrotation
			JOINT AnkleLeft
			{
				OFFSET 0 -0.346 0
				CHANNELS 3 Zrotation Yrotation Xrotation
				End Site
				{
					OFFSET 0.0 0.0 0.0891
				}
			}
		}
	}
	JOINT HipRight
	{
		OFFSET 0.0952 0 0
		CHANNELS 3 Zrotation Yrotation Xrotation
		JOINT KneeRight
		{
			OFFSET 0 -0.3732 0
			CHANNELS 3 Zrotation Yrotation Xrotation
			JOINT AnkleRight
			{
				OFFSET 0 -0.346 0
				CHANNELS 3 Zrotation Yrotation Xrotation
				End Site
				{
					OFFSET 0.0 0.0 0.0891
				}
			}
		}
	}
}
MOTION
Frames: 19
Frame Time: 0.033333
0.322704 0.704991 0.27405000000000035 43.0308 -64.3259 -16.8677 0.225925 1.21894 1.19652 -6.4033e-07 3.41509e-06 -1.90833e-14 65.6027 9.92781 63.773 -1.00379e-05 84.9229 -1.38148e-05 0 0 0 -66.1405 9.49238 42.5262 -4.90015e-06 -27.7126 5.60552e-06 0 -3.41509e-06 0 4.30462 8.81136 -19.3013 -12.7062 6.25643 38.8014 0 0 -8.53774e-07 19.2049 9.3428 -23.3829 -6.11806 -5.10813 20.4401 0 0 0
0.33032100000000003 0.703612 0.2764700000000002 42.5457 -62.6798 -15.688899999999997 -1.1193 0.13678 1.41249 0 0 0 68.4926 11.761 62.8335 1.18641e-05 82.7989 1.35393e-06 0 0 0 -65.7878 8.63325 38.0485 6.48568e-06 -27.0063 -5.06963e-06 0 0 0 2.73986 8.06088 -20.0449 -11.3596 5.50959 39.5781 0 0 0 17.0406 8.22448 -22.4311 -4.30963 -4.49601 16.7404 0 0 0
0.330567 0.703612 0.2764700000000002 41.9531 -62.2511 -15.1141 -1.13831 -0.753541 1.39592 0 3.46846e-06 0 71.171 13.483 63.1386 -2.73996e-05 80.1307 -2.30443e-05 0 0 0 -66.9321 6.05862 37.7445 9.68881e-07 -23.9439 -4.56923e-06 0 0 0 2.16887 7.52989 -19.7942 -10.4745 5.34221 40.3264 0 0 0 15.9498 7.73263 -22.8569 -3.18986 -4.57272 16.9244 0 0 0
0.330567 0.703612 0.2764700000000002 42.0864 -61.7037 -14.3731 -0.451248 -1.80572 -0.440426 0 0 0 73.354 13.9354 64.0456 -5.37496e-06 77.1017 -8.65006e-06 0 0 0 -67.8175 7.8819 41.0505 2.29961e-06 -27.6153 -9.35696e-06 0 0 0 1.58152 8.16788 -20.5648 -10.7639 5.78249 41.4714 0 0 0 14.1366 7.41528 -24.1581 -2.2443 -3.7984 14.3436 0 0 0
0.319684 0.71323 0.2583200000000003 40.4499 -64.7614 -13.729399999999998 -0.510796 1.82029 0.574215 0 0 0 78.4775 14.1056 62.3508 1.45455e-05 74.1591 2.43125e-06 0 0 0 -64.1335 8.589 39.8164 2.22612e-06 -32.4686 -1.53742e-06 0 0 0 6.01254 8.5107 -17.896 -12.9912 5.26219 37.0639 0 0 0 17.7882 7.07552 -21.3718 -1.8035 -3.71126 12.4693 0 0 0
0.32268 0.718129 0.2415200000000004 39.8588 -61.2763 -12.517399999999999 0.582563 -0.978097 -1.47044 0 0 0 79.5518 14.3882 62.5574 -1.58214e-05 69.8307 -1.52082e-05 0 0 0 -65.2657 8.30626 42.2976 -7.17033e-06 -31.599 2.54341e-07 0 0 0 3.10475 2.62087 -12.2008 -8.07348 2.03324 22.5694 0 0 0 14.8718 6.73244 -23.813 -1.23954 -3.49778 13.2474 0 0 0
0.321433 0.72916 0.2291500000000002 37.724 -60.2119 -10.7528 -0.609547 -2.11959 -0.37209 0 0 0 83.1575 16.1207 61.8794 7.87086e-06 67.0971 1.34146e-05 0 0 0 -64.4912 8.59991 35.2669 3.93926e-06 -29.9359 -8.12323e-06 0 0 0 0.337856 0.511434 -9.48652 -3.42781 1.3798 18.401 0 0 0 14.8168 6.56407 -25.6517 -0.326024 -4.03527 15.504 0 0 0
0.321433 0.742484 0.2291500000000002 41.473 -58.7684 -14.870199999999997 1.57097 -0.397338 -2.16534 2.62396e-14 3.52182e-06 8.53774e-07 79.4532 14.0247 60.0804 -1.23439e-05 64.9778 -7.8606e-06 3.41509e-06 1.01778e-13 -3.41509e-06 -67.9616 9.43938 41.5066 2.44943e-07 -29.05 -9.45423e-07 0 0 0 -1.81839 0.0831961 -4.17498 -3.35398 1.46984 11.283 0 0 0 12.6538 5.20885 -24.9004 -2.74187 -2.33843 15.341 0 0 0
0.32268 0.742484 0.2291500000000002 44.8291 -60.9153 -17.5991 0.965695 2.41859 -2.062 0 3.41509e-06 0 80.9702 14.9804 59.5251 -1.61074e-05 62.2905 -9.73396e-06 0 0 0 -66.4261 11.0558 40.9766 -3.67643e-06 -32.88 6.42582e-06 0 0 0 -1.62629 0.195849 -0.00745115 -4.01824 0.464407 3.77387 0 0 0 11.7785 6.55837 -28.3266 -4.92929 -2.54462 21.3444 0 0 0
0.325597 0.745829 0.20521000000000011 35.6484 -56.3556 -8.3977 -0.41265 -5.76346 -0.0181309 0 0 0 87.1423 19.5005 60.8533 -1.33006e-06 58.366 -1.63893e-05 0 0 0 -64.1529 9.80989 36.2695 1.72902e-06 -32.9186 -5.85235e-06 0 0 0 -2.12354 0.0499183 -0.225547 -1.92764 0.328381 3.27488 0 0 0 9.37202 6.19266 -34.2521 -4.34319 -2.11385 24.6577 0 0 0
0.325597 0.757608 0.18569000000000013 33.3256 -58.6951 -5.0458 1.13751 -3.47945 0.267299 0 3.41509e-06 0 87.9935 20.981 59.5345 -9.6322e-07 57.4498 -4.42223e-06 0 0 0 -63.9932 7.56275 47.2952 2.39022e-06 -33.8085 -7.86503e-06 0 0 0 2.6627 0.30082 -3.17159 -5.40824 0.572287 5.08494 -8.00413e-07 3.42843e-06 -2.39473e-14 10.3089 9.47846 -37.2707 -11.5181 1.11729 29.0967 0 0 0
0.325597 0.761304 0.1945800000000002 31.8975 -59.2217 -2.7136999999999993 5.16229 -2.79306 -1.7371 0 0 0 84.2443 19.3992 58.0074 4.92492e-06 56.904 -1.21557e-06 0 0 0 -67.3886 9.05462 48.4742 3.8714e-06 -32.0121 -1.11055e-06 0 0 0 6.12505 1.44427 -5.30281 -8.80378 0.155371 4.95157 0 0 0 6.30385 10.089 -41.1815 -8.92468 -0.579041 35.3584 0 0 0
0.302161 0.76627 0.1945800000000002 42.6664 -66.7516 -13.9082 2.71693 1.44837 -1.66327 0 0 0 88.209 17.9623 62.2452 -1.96807e-06 53.7633 -4.8265e-06 0 0 0 -63.778 17.321 47.7502 3.69238e-06 -36.7328 -1.11215e-05 0 0 0 13.1925 16.3814 -17.6244 -26.0543 6.92879 27.6655 0 0 0 12.1081 10.147 -31.1009 -12.8112 0.196624 25.4048 0 0 0
0.302161 0.76627 0.1945800000000002 46.1882 -67.5078 -15.595999999999997 3.06245 -1.02008 -2.94147 0 0 0 88.1619 18.4233 66.0114 7.59282e-06 51.7283 -3.90952e-06 0 0 0 -65.7785 21.4574 48.1869 2.23029e-06 -35.4131 -6.98567e-06 0 0 0 14.0355 28.044 -21.5719 -28.9132 10.2773 37.513 0 0 0 11.3913 10.5163 -31.3554 -14.3338 0.883768 24.1669 0 0 0
0.299601 0.761304 0.20934000000000008 52.3817 -66.6997 -22.739799999999995 0.489629 -3.41716 -1.54688 0 0 0 88.4195 19.6745 69.5173 -1.40071e-05 49.4099 -6.44403e-06 0 0 0 -65.5802 24.269 45.416 -4.2124e-06 -36.7412 1.84869e-06 0 0 0 12.002 39.7058 -23.5964 -25.7224 13.216 49.9591 0 5.33608e-08 0 9.01773 7.94629 -28.0586 -13.1304 1.31269 21.9453 0 0 0
0.29734900000000003 0.761304 0.2149700000000001 59.1701 -69.0584 -28.3071 1.64827 -3.3797 -2.74197 0 0 0 85.9597 19.4001 72.6058 6.04632e-06 48.3328 -4.77322e-06 0 0 0 -68.4903 26.2501 43.3633 -3.57845e-06 -34.7306 8.55867e-10 0 0 0 8.95626 56.7696 -28.5423 -19.6645 12.9898 63.2528 0 0 0 6.95464 4.8967 -26.1492 -8.64912 0.441972 18.6128 0 0 0
0.295919 0.760028 0.2212900000000002 67.0139 -70.5744 -35.8426 3.02912 -3.91916 -2.44073 0 0 0 82.2638 21.8448 77.5987 1.31781e-06 46.8504 -5.01182e-06 0 0 0 -71.5317 25.7417 42.6652 -1.12388e-06 -32.5209 -8.34335e-06 0 0 0 9.40124 61.8016 -29.0639 -19.0741 12.5251 65.1432 0 0 0 7.15409 4.05829 -23.0732 -7.65742 0.0887649 15.0199 0 0 0
0.292783 0.755849 0.24105 70.741 -71.6595 -39.2512 0.099014 -4.06784 -1.82618 0 0 0 74.0589 23.3118 76.9285 4.30265e-06 50.7984 -3.6278e-06 0 0 0 -70.9253 27.2694 29.5882 -1.31038e-05 -31.7783 8.61232e-06 0 0 0 7.93902 66.0603 -29.929 -19.2799 10.6063 66.6863 0 0 0 7.27233 7.13305 -22.2601 -10.7799 -0.781115 14.9448 0 0 0
0.279546 0.754226 0.24105 71.7374 -72.114 -41.6355 -0.1283 -2.05439 -2.03576 0 0 0 74.1801 19.6116 74.3255 3.91109e-06 51.0351 -1.13779e-05 0 0 0 -69.6377 24.6728 33.3185 -1.66044e-06 -30.0271 6.19099e-06 0 0 0 9.62174 68.4258 -28.9557 -17.0578 9.965 69.5201 0 0 0 8.16754 7.01293 -19.8939 -12.203 -0.446016 14.8586 0 3.41509e-06 0
